# xmcd CD database generated by RipIT
#
# Track frame offsets:
# 150
# 13696
# 23020
# 33301
# 45957
# 58824
# 73237
# 85383
# 98499
# 110366
# 120996
# 135272
# 149150
# 161637
# 176083
# 188323
#
# Disc length: 2689 seconds
#
# Revision: 2
# Processed by: cddbd v1.5.2PL0 Copyright (c) Steve Scherf et al.
# Submitted via: RipIT 3.6.0 www.suwald.com/ripit/ripit.html on 2009-03-10 at 21:33
#
DISCID=cc0a7f10
DTITLE=Various Artist - Ultimate Piano Works CD 10
DYEAR=1900
DGENRE=Jazz
TTITLE0=Oscar Peterson - Gipsy In My Soul
TTITLE1=Nat King Cole Trio - Riffin' In F Minor
TTITLE2=Dave Brubeck - I Hear A Rhapsody
TTITLE3=Erroll Garner - I'm Comin' Virginia
TTITLE4=Joe Sullivan - Squeeze Me
TTITLE5=Horace Silver - Ecaroh
TTITLE6=Jimmy Yancey - State Street Special
TTITLE7=Erroll Garner - Frankie And Johnny Fantasy
TTITLE8=Joe Sullivan - Reflections
TTITLE9=Earl Hines - Down Among The Sheltering Pines
TTITLE10=Erroll Garner - Blue Lou Part 2
TTITLE11=Thelonius Monk - Evance
TTITLE12=Art Tatum - Makin' Whoopee
TTITLE13=Erroll Garner - The Petite Waltz Bounce
TTITLE14=Nat King Cole Trio - Rib Town Shuffle
TTITLE15=Billy Kyle - H. R. S. Bounce
EXTD=
EXTT0=
EXTT1=
EXTT2=
EXTT3=
EXTT4=
EXTT5=
EXTT6=
EXTT7=
EXTT8=
EXTT9=
EXTT10=
EXTT11=
EXTT12=
EXTT13=
EXTT14=
EXTT15=
PLAYORDER=
